<svg width="318" height="318" viewBox="0 0 318 318" fill="none" xmlns="http://www.w3.org/2000/svg">
<path d="M42.3011 89.6022L44.4095 125.445H163.008V56.9216L168.807 39L174.605 42.1626L188.837 66.9366H213.611L225.734 42.1626L232.586 39L238.912 56.9216L242.601 94.3462H297.948L304.8 110.686L301.11 133.879L286.878 151.801L266.848 159.18H242.601V262.493L238.912 274.616L230.478 278.833L218.355 274.616L213.611 267.764V248.261H190.945V267.764L186.728 274.616L181.457 278.833H171.969L164.59 269.873L163.008 248.261H95.0117V267.764L91.322 274.616L83.4154 278.833H75.5088L68.6564 267.764L67.0751 250.897L48.6264 248.261L44.4095 250.897V271.981L35.4487 278.833H24.9066L18.0542 269.345V113.849L24.9066 99.0901L32.8132 92.7648L42.3011 89.6022Z" fill="white" stroke="black"/>
<g filter="url(#filter0_d_106_2)">
<path d="M242.197 159.303C242.197 159.303 272.953 164.205 290.862 147.991C308.77 131.777 307.213 94.824 293.198 94.824C279.182 94.824 242.197 94.824 242.197 94.824L240.64 68.8064C240.64 68.8064 237.915 33.6951 229.35 40.4823C220.785 47.2695 213.777 68.8064 213.777 68.8064H186.525C186.525 68.8064 180.686 47.6465 172.51 40.4823C164.334 33.318 161.998 68.8064 161.998 68.8064V126.077H43.2572V89.124C43.2572 89.124 31.1884 89.124 24.57 101.567C17.9517 114.011 17.5623 125.411 17.173 131.777C16.8595 136.904 17.051 229.172 17.1374 264.881C17.1561 272.617 23.433 278.833 31.169 278.833V278.833C38.9202 278.833 45.2038 272.55 45.2038 264.799V247.537H68.1734V265.207C68.1734 272.733 74.274 278.833 81.7994 278.833V278.833C89.3249 278.833 95.4255 272.733 95.4255 265.207V247.537H163.945V265.207C163.945 272.733 170.046 278.833 177.571 278.833V278.833C185.097 278.833 191.197 272.733 191.197 265.207V247.537H213.777V264.623C213.777 272.471 220.139 278.833 227.987 278.833V278.833C235.835 278.833 242.197 272.471 242.197 264.623V159.303ZM242.197 159.303C242.197 159.303 234.925 159.303 228.346 154.246C221.767 149.189 222.178 142.322 222.178 142.322" stroke="black" stroke-width="6" stroke-linecap="round" stroke-linejoin="round" shape-rendering="crispEdges"/>
</g>
<path d="M174.949 93.8027C174.949 93.8027 173.716 84.7568 182.762 84.7568C191.808 84.7568 191.397 93.8027 191.397 93.8027" stroke="black" stroke-width="5" stroke-linecap="round" stroke-linejoin="round"/>
<path d="M209.488 93.8027C209.488 93.8027 208.255 84.7568 217.301 84.7568C226.347 84.7568 225.935 93.8027 225.935 93.8027" stroke="black" stroke-width="5" stroke-linecap="round" stroke-linejoin="round"/>
<path d="M293.216 103.708C292.578 101.466 279.183 101.466 277.908 103.708C276.632 105.951 281.097 113.318 286.2 112.678C291.302 112.037 293.854 105.951 293.216 103.708Z" fill="black" stroke="black" stroke-width="5" stroke-linecap="round" stroke-linejoin="round"/>
<defs>
<filter id="filter0_d_106_2" x="10.0002" y="36.5232" width="301.003" height="253.31" filterUnits="userSpaceOnUse" color-interpolation-filters="sRGB">
<feFlood flood-opacity="0" result="BackgroundImageFix"/>
<feColorMatrix in="SourceAlpha" type="matrix" values="0 0 0 0 0 0 0 0 0 0 0 0 0 0 0 0 0 0 127 0" result="hardAlpha"/>
<feOffset dy="4"/>
<feGaussianBlur stdDeviation="2"/>
<feComposite in2="hardAlpha" operator="out"/>
<feColorMatrix type="matrix" values="0 0 0 0 0 0 0 0 0 0 0 0 0 0 0 0 0 0 0.25 0"/>
<feBlend mode="normal" in2="BackgroundImageFix" result="effect1_dropShadow_106_2"/>
<feBlend mode="normal" in="SourceGraphic" in2="effect1_dropShadow_106_2" result="shape"/>
</filter>
</defs>
</svg>
